<svg id="Logo_-_White" data-name="Logo - White" xmlns="http://www.w3.org/2000/svg" width="192.038" height="33.332" viewBox="0 0 192.038 33.332">
  <path id="Love" d="M83.6,38.535V13.517h8.182V17.1H87.521v6.838H90.36V27.36H87.521v7.505h4.258v3.669Zm-8.85-25.018,1.419,14.761L77.92,13.517h3.507L78,38.535H74.329L70.906,13.517ZM64.394,13.1a4.848,4.848,0,0,0-4.926,5V33.865a4.927,4.927,0,1,0,9.852,0V18.187A4.97,4.97,0,0,0,64.394,13.1Zm.918,21.015c0,.667-.334,1-.918,1a.9.9,0,0,1-.918-1V17.937c0-.667.334-1,.918-1a.9.9,0,0,1,.918,1Zm-7.18,4.42H50.2V13.517h3.924V34.866h4.008Z" transform="translate(100.259 -9.947)" fill="#fff"/>
  <path id="Preemptive" d="M147.942,24.142V0h7.845V3.6h-4.028v6.565h2.756v3.388h-2.756v7.412h4.028v3.6h-7.845ZM139.673,0l1.272,14.4,1.7-14.4h3.392l-3.392,24.353h-3.6L135.856,0Zm-9.329,0h3.816V24.353h-3.816Zm-4.452,3.6V24.142h-3.816V3.6h-2.756V0h9.329V3.6h-2.756Zm-11.449.847c0-.635-.212-1.059-.636-1.059h-1.06v8.259h1.06c.424,0,.636-.212.636-1.059V4.447Zm-.424,10.377h-1.272v9.53H108.93V0h5.089c1.908,0,3.816,1.059,3.816,4.447v6.141c.212,3.177-1.908,4.235-3.816,4.235m-7.633,9.318h-3.6V19.271l.212-6.141-.848,5.294-1.06,5.93H98.117l-1.06-5.93-.636-5.294V24.353H93.028V0h4.24l1.908,11.436.424,3.177.424-3.177L102.145,0h4.028V24.142Zm-23.746,0V0h7.845V3.6H86.456v6.565h2.756v3.388H86.456v7.412h4.028v3.6H82.639Zm-10.177,0V0h7.845V3.6H76.279v6.565h2.756v3.388H76.279v7.412h4.028v3.6H72.462ZM66.526,4.447c0-.635-.212-1.059-.636-1.059h-.848V10.8h.848c.424,0,.636-.212.636-1.059V4.447Zm4.24,19.695h-3.6c-.424-.847-.424-1.906-.424-3.812V15.247c0-.635-.212-1.059-.848-1.059h-.848V24.353H61.225V0h5.088c1.908,0,4.028,1.059,4.028,4.235V9.741a2.9,2.9,0,0,1-1.272,2.753,2.872,2.872,0,0,1,1.484,2.753v4.871a11.779,11.779,0,0,0,.212,4.024M55.5,4.447c0-.635-.212-1.059-.636-1.059h-.848v8.259h1.06c.424,0,.636-.212.636-1.059V4.447Zm-.212,10.377H54.016v9.53H50.2V0h5.089C57.2,0,59.1,1.059,59.1,4.447v6.141c.212,3.177-1.908,4.235-3.816,4.235" transform="translate(-10.934 3.712)" fill="#fff"/>
  <g id="HEART_ICON_x5F_2019_5_">
    <path id="Path_2" data-name="Path 2" d="M20.819,0,15.308,5.352,9.8,0,0,9.48l7.425,7.186,7.884-7.645,7.884,7.645L30.617,9.48Z" fill="#e91d2d"/>
    <path id="Path_3" data-name="Path 3" d="M15.308,29.445,7.425,21.8,0,28.986l9.8,9.48,5.511-5.352,5.511,5.352,9.8-9.48L23.192,21.8Z" transform="translate(0 -5.134)" fill="#6da9dc"/>
    <path id="Path_4" data-name="Path 4" d="M17.584,27.09l7.884-7.645L17.584,11.8,9.7,19.445Z" transform="translate(-2.275 -2.779)" fill="#79242f"/>
  </g>
</svg>
