<svg xmlns="http://www.w3.org/2000/svg" width="16" height="16" viewBox="0 0 16 16">
  <path id="close_circle_fill" data-name="close circle fill" d="M8,16a7.833,7.833,0,0,1-4.032-1.088,8.1,8.1,0,0,1-2.88-2.88A7.833,7.833,0,0,1,0,8,7.833,7.833,0,0,1,1.088,3.968a8.1,8.1,0,0,1,2.88-2.88A7.833,7.833,0,0,1,8,0a7.833,7.833,0,0,1,4.032,1.088,8.1,8.1,0,0,1,2.88,2.88A7.833,7.833,0,0,1,16,8a7.833,7.833,0,0,1-1.088,4.032,8.1,8.1,0,0,1-2.88,2.88A7.833,7.833,0,0,1,8,16ZM8,6.864,5.744,4.608,4.608,5.744,6.864,8,4.608,10.256l1.136,1.136L8,9.136l2.256,2.256,1.136-1.136L9.136,8l2.256-2.256L10.256,4.608Z" fill="#fae9d8"/>
</svg>
